# xmcd
#
# Track frame offsets:
#	150
#	13166
#	26811
#	39474
#	53264
#	65835
#	77969
#	92438
#	105179
#	118388
#	129383
#	142206
#	153672
#	166255
#	180210
#	194110
#	208111
#	219383
#	232477
#	244386
#	256735
#	267609
#	278275
#	291458
#	304437
#
# Disc length: 4223 seconds
#
# Revision: 1
# Processed by: cddbd v1.5.1PL2 Copyright (c) Steve Scherf et al.
# Submitted via: audiograbber 1.83.01
#
DISCID=7f107d19
DTITLE=Various Artist - The R&B Years 1948 Disk 1
DYEAR=1900
DGENRE=R&B
TTITLE0=The Ravens - Write Me a Letter
TTITLE1=T-Bone Walker - Call it Stormy Monday
TTITLE2=Eddie Vinson - Oil man Blues
TTITLE3=Lionel Hampton - Red Top
TTITLE4=Louis Jordan - Barnyard Boogie
TTITLE5=Julia Lee - King Size Papa
TTITLE6=Paul Williams - Thirty-Five Thirty
TTITLE7=T-Bone Walker - Long Skirt Baby Blues
TTITLE8=Lowell Fulson - Let's Throw a Boogie Woogie
TTITLE9=Roy Brown - Mighty, Mighty Man
TTITLE10=Jack McVea - Inflation Blues
TTITLE11=Gene Phillips - Hey Now
TTITLE12=Jess Stone - I came Home Unexpectedly
TTITLE13=Arnett Cobb - Flower Garden Blues
TTITLE14=Lonnie Johnson - Tomorrow Night
TTITLE15=Tiny Grimes - Boogie Woogie Barbecue
TTITLE16=Baby Face Lewis - Grandma and Grandpa
TTITLE17=Nellie Lutcher - Fine Brown Frame
TTITLE18=Jesse Price - Frettin' for some Pettin'
TTITLE19=Memphis Slim - Midnight Jump
TTITLE20=Eddie Vinson - Alimony Blues
TTITLE21=Roy Milton - Keep a Dollar in Your Pocket
TTITLE22=Rosetta howard - Ebony Rhapsody
TTITLE23=Bull Moose Jackson - Sneaky Pete
TTITLE24=Sherman Williams - Baby Please don't Go
EXTD=
EXTT0=
EXTT1=
EXTT2=
EXTT3=
EXTT4=
EXTT5=
EXTT6=
EXTT7=
EXTT8=
EXTT9=
EXTT10=
EXTT11=
EXTT12=
EXTT13=
EXTT14=
EXTT15=
EXTT16=
EXTT17=
EXTT18=
EXTT19=
EXTT20=
EXTT21=
EXTT22=
EXTT23=
EXTT24=
PLAYORDER=
